<svg xmlns="http://www.w3.org/2000/svg" viewBox="0 0 200.18 122.59"><path d="M200.18,41.69a9.48,9.48,0,0,1-1,1.26,1.32,1.32,0,0,1-1.89.06,2.88,2.88,0,0,1-.52-1.53c-.07-.44.22-1.12,0-1.31-.69-.64-1.53-1.51-2.33-1.53a7.85,7.85,0,0,0-3.74.93,22.4,22.4,0,0,0-10.48,11.69c-.72,1.75-1.27,3.56-1.9,5.34-.07.2-.13.39-.19.59a1.57,1.57,0,0,1-1.78,1.26A1.54,1.54,0,0,1,175,56.74a9.31,9.31,0,0,1,.63-3.1,23.51,23.51,0,0,0,2.26-11.06,4.6,4.6,0,0,0-.36-1.46,1.72,1.72,0,0,1,3.08-1.53,7.76,7.76,0,0,1,.43,2,17.59,17.59,0,0,1,0,2c1.22-1.24,2.18-2.34,3.26-3.3,2.42-2.15,5-4,8.27-4.71A5.53,5.53,0,0,1,198.05,37a31.61,31.61,0,0,1,2.13,2.62Z"/><path d="M101.4,65.53c-.91,1.08-1.84,2.38-3,3.51a90.21,90.21,0,0,1-7.13,6.84C89,77.76,86.51,78,84.5,76.13c-1.36-1.25-1.42-3-1.66-4.69,0-.33,0-.66-.08-1.18a28.1,28.1,0,0,1-11,11.91,7.93,7.93,0,0,1-7.49.78c-2.73-1.16-3.92-3.49-4-6.75,0-.88.12-1.77.18-2.7a40,40,0,0,1-2.61,4.15C55.3,80.81,52.76,84,50,87a118.54,118.54,0,0,1-9.07,8.58c-3.28,2.81-6.69,5.5-10.23,8-7.34,5.16-14.8,10.16-22.24,15.18-1.88,1.27-3.88,2.36-5.84,3.51-1.09.63-1.83.48-2.34-.38S0,120.19,1,119.53s2-1.18,3-1.8c5.77-3.75,11.63-7.37,17.27-11.32s11.23-8.16,16.66-12.48A96.55,96.55,0,0,0,55.1,76.16,14.4,14.4,0,0,0,58,70.24c.47-2.47-.22-4.4-2.41-5.59a49.72,49.72,0,0,0-6.32-2.83c-2.84-1.06-5.81-1.81-8.64-2.9C36.7,57.4,32.79,55.81,29,54a25.84,25.84,0,0,1-8.79-6.4,14.49,14.49,0,0,1-3.75-10.38c.22-4.7,2.26-8.66,4.93-12.36A48.28,48.28,0,0,1,31.74,14.49c2.87-2.16,5.8-4.27,8.84-6.19A64.42,64.42,0,0,1,57,.63C61.24-.62,65.33.09,69.31,1.82a3.65,3.65,0,0,1,1.58,1.29,1.76,1.76,0,0,1-.07,1.58,1.8,1.8,0,0,1-1.38.51,5.22,5.22,0,0,1-1.54-.56,13.78,13.78,0,0,0-7.69-1.39,35.76,35.76,0,0,0-7.07,2.06A79.71,79.71,0,0,0,36,15.22a52.91,52.91,0,0,0-12.36,11.9,20,20,0,0,0-4,9.55,11.59,11.59,0,0,0,4.18,10.1A39.63,39.63,0,0,0,35.37,53.6c3.3,1.39,6.71,2.55,10.09,3.76,3.09,1.1,6.28,2,9.31,3.23,2.74,1.13,5.12,2.86,6.17,5.85a19.64,19.64,0,0,1,.51,2.62c1.66-5,4-9.41,8.46-12.47-.32-.27-.63-.4-.71-.62-.21-.52-.56-1.2-.38-1.59a1.86,1.86,0,0,1,1.45-.92c3.08.41,6.11,1,8.6,3.11a14.14,14.14,0,0,1,4.84,8.12c.51-1.66.86-3.13,1.42-4.52.7-1.76,1.57-3.46,2.38-5.18.21-.44.47-.84.66-1.29a1.45,1.45,0,0,1,1.65-1,1.51,1.51,0,0,1,1.31,1.55,3.16,3.16,0,0,1-.46,1.66C88,59.86,87,64.41,86.16,69a11.75,11.75,0,0,0,0,3.6c.2,1.64,1.16,2,2.58,1.2a27.35,27.35,0,0,0,6.38-5.66,44.17,44.17,0,0,0,7.51-10.81,41.94,41.94,0,0,0,1.74-4.61c.33-1,1.21-1.84,2.06-1.65a2,2,0,0,1,1.23,2.44c-.43,1.54-1,3-1.38,4.59A55.26,55.26,0,0,0,104.79,65c-.22,1.81,1,3.15,2.42,4.55l.43-1.79c1-4.1,1.91-8.21,2.92-12.31.46-1.85,1-3.69,1.61-5.49a2.21,2.21,0,0,1,1.12-1.27,2.08,2.08,0,0,1,1.71.24,1.83,1.83,0,0,1,.46,1.56c-.48,2-1.14,4-1.65,6-.67,2.7-1.27,5.42-1.9,8.14a2.63,2.63,0,0,0,0,1.14,5.62,5.62,0,0,0,.65-.64c4.18-5.31,8.33-10.64,12.52-15.93,1.14-1.45,2.38-2.82,3.63-4.18A1.66,1.66,0,0,1,131,44.7a1.74,1.74,0,0,1,.23,2.41c-1.14,1.49-2.43,2.87-3.6,4.34-2.85,3.58-5.64,7.2-8.51,10.76-2.57,3.2-5.21,6.35-7.86,9.49a2.48,2.48,0,0,1-2.8.85c-.07,0-.15-.08-.2-.07-3.07.92-4.09-1.56-5.36-3.39A17.83,17.83,0,0,1,101.4,65.53Zm-38,9.69c.15,4.58,2.76,6.2,6,4.59a23.62,23.62,0,0,0,9.76-9.42,9.21,9.21,0,0,0,1.34-5.54,7.86,7.86,0,0,0-2.5-4.7c-.31-.32-.87-.39-1.3-.6s-1-.35-1.27-.71a1.48,1.48,0,0,0-2.24-.52,14.83,14.83,0,0,0-4.54,3.61,18.78,18.78,0,0,0-3.7,6.9C64.28,71.23,63.76,73.67,63.4,75.22Z"/><path d="M128.75,62.89a7.87,7.87,0,0,1-4.65,1.28,2,2,0,0,1-2-1.53,2.09,2.09,0,0,1,.81-2.29c.87-.68,1.42-.52,2.55.68l3-1.56c.81-.42.77-1.27.89-2a21.19,21.19,0,0,1,4.94-10.86c1.51-1.68,3.27-3.12,5.86-2.87a3.1,3.1,0,0,1,2.89,3,8,8,0,0,1-2.56,5.95c-2.49,2.67-5.18,5.16-7.85,7.67a1.87,1.87,0,0,0-.44,2.09c.1.34.92.55,1.44.67,1.53.34,2.67-.49,3.75-1.39.59-.49,1.16-1,1.73-1.51.87-.77,1.76-.83,2.4-.16a1.55,1.55,0,0,1-.19,2.31,32.87,32.87,0,0,1-4.54,3.47c-1.57.92-5.52.83-7-1.11C129.44,64.15,129.14,63.53,128.75,62.89Zm11.3-15.82c-2.53-.67-6.51,5.16-7,9C135.63,53.17,138.84,51,140.05,47.07Z"/><path d="M148.91,49.53c1.39-1.27,2.59-2.42,3.84-3.5a14.57,14.57,0,0,1,6.74-3.57c3.29-.63,5.95.53,5,5.1-.34,1.73-.85,3.43-1.17,5.16-.26,1.43-.27,2.83,1.15,3.84a1.3,1.3,0,0,1,.39,1.93,1.45,1.45,0,0,1-2,.55,4.55,4.55,0,0,1-2.69-3.7,19.55,19.55,0,0,1,.93-7.25,11.05,11.05,0,0,0,.3-1.09c.26-1.54-.13-1.84-1.68-1.39a14.39,14.39,0,0,0-5.46,3.19,28.87,28.87,0,0,0-6.1,7.25,13.23,13.23,0,0,0-.94,2.51c-.39,1.18-.71,2.39-1.12,3.57a1.45,1.45,0,0,1-1.74,1,1.58,1.58,0,0,1-1.33-1.53,7.26,7.26,0,0,1,.73-4.16,20,20,0,0,0,1.89-10.3c0-.66-.12-1.33-.1-2,0-1.24.81-2.12,1.75-2.07s1.63,1,1.58,2.32S148.91,48,148.91,49.53Z"/><path d="M171.7,58.91a4.78,4.78,0,0,1-4.46-5.36,46.05,46.05,0,0,1,2.5-12c.44-1.33,1.54-1.88,2.44-1.24a1.78,1.78,0,0,1,.59,2.15c-.64,2.41-1.38,4.81-1.9,7.25a34.69,34.69,0,0,0-.38,4.45c-.06.93.53,1.27,1.27,1.65a2.94,2.94,0,0,1,1.47,1.39C173.59,58.28,172.9,58.93,171.7,58.91Z"/><path d="M175.39,30.4c-.14.18-.37.75-.79,1A30,30,0,0,1,171,33.13,1.71,1.71,0,0,1,168.73,32a1.61,1.61,0,0,1,1.19-1.88c1.18-.47,2.33-1,3.52-1.44C174.47,28.26,175.41,29,175.39,30.4Z"/></svg>